PathFileType	4	(X/Y/Z)	../Python\walking\Walking20\task.trc
DataRate	CameraRate	NumFrames	NumMarkers	Units	OrigDataRate	OrigDataStartFrame	OrigNumFrames
200.000000	200.000000	7	30	mm	200.000000	303	485
Frame#	Time	CLAV			STRN			RASI			LASI			PE01			RTH1			RTH2			RTH3			RTB1			RHEE			RD5M			RTOE			LTH2			LTH3			LTB1			LTB2			LTB3			LHEE			LTOE			LD5M			RTB3			RBAK			RTB2			C7			RPSI			LPSI			PE03			PE02			LTH1			T10			
		X1	Y1	Z1	X2	Y2	Z2	X3	Y3	Z3	X4	Y4	Z4	X5	Y5	Z5	X6	Y6	Z6	X7	Y7	Z7	X8	Y8	Z8	X9	Y9	Z9	X10	Y10	Z10	X11	Y11	Z11	X12	Y12	Z12	X13	Y13	Z13	X14	Y14	Z14	X15	Y15	Z15	X16	Y16	Z16	X17	Y17	Z17	X18	Y18	Z18	X19	Y19	Z19	X20	Y20	Z20	X21	Y21	Z21	X22	Y22	Z22	X23	Y23	Z23	X24	Y24	Z24	X25	Y25	Z25	X26	Y26	Z26	X27	Y27	Z27	X28	Y28	Z28	X29	Y29	Z29	X30	Y30	Z30	

304	1.515	509.1914367675784	1250.842529296875	159.9776763916016	569.1052856445315	1063.693237304688	158.7674102783204	551.192565917969	872.1716918945317	307.6286621093751	537.7002563476565	865.237182617188	81.44202423095706	350.8955688476564	944.9177856445317	211.3070526123048	444.2119140625002	583.474792480469	336.6704101562501	443.9712524414065	507.2656860351565	314.5121459960939	481.1080322265627	555.924011230469	315.7248840332032	405.3375244140627	284.4841308593751	295.0841064453126	253.8794403076173	32.09572982788087	232.7548065185548	406.6851196289065	18.23029518127442	291.3714904785157	442.9687805175784	30.85534858703615	234.9872436523439	567.810485839844	552.5493774414065	60.70353317260745	617.8320922851565	611.8843383789065	42.13715744018556	614.8828125000002	297.0128784179689	62.10321807861331	619.047058105469	218.8673553466798	74.88954162597659	656.2072753906252	251.587127685547	69.97229003906253	616.568054199219	38.7143898010254	137.8668975830079	797.7048950195317	62.18181610107425	100.5548706054688	756.9562988281252	40.28919219970705	64.49092864990237	377.4549865722657	210.6348419189454	289.8366699218751	367.6986389160157	1249.456298828125	304.9777832031251	355.9087829589845	251.8506927490236	309.6167297363282	387.9684143066409	1341.7412109375	185.5244445800782	351.1166076660157	913.4020385742192	261.2928466796876	344.5175170898439	904.4135131835942	173.7285461425782	334.5763244628907	883.4853515625005	188.7539062500001	336.7258605957032	886.5014648437505	239.2291412353517	567.4258422851565	611.7213134765627	44.04053115844728	366.9100036621095	1045.221801757813	209.0342712402345	
305	1.52	515.6433715820315	1249.232177734375	159.3917694091797	575.5637817382815	1062.076416015625	158.5282135009766	557.450866699219	870.8164672851567	307.5360107421876	544.5640869140627	863.8273315429692	81.16912841796878	357.4636230468751	943.4369506835942	210.3590545654298	448.3556823730471	582.7307739257815	336.6248779296876	447.6149597167971	506.4789123535159	314.4653930664064	485.1011657714846	554.8890380859377	315.7758789062501	407.227966308594	283.9447631835939	295.0833740234376	253.8560485839845	32.48037719726564	232.7658996582032	406.6700744628909	18.25817680358887	291.3601989746095	443.0079345703127	30.82018089294435	234.9764709472657	573.8704833984377	550.8583984375002	60.86218261718753	624.0798950195315	609.9649047851565	42.11543273925783	626.7489013671877	294.8482360839845	61.56333923339847	633.570983886719	216.8025512695314	73.93555450439456	669.6961059570315	250.8664855957032	68.96051025390628	637.4861450195315	36.54629135131837	135.7324218750001	817.9789428710942	65.16746520996097	98.84700012207037	777.9081420898442	42.26159667968751	62.66123962402347	378.7354125976564	210.2680816650392	289.8177185058595	374.2240600585939	1248.208251953125	304.5941772460939	357.5285644531251	251.6949920654298	309.5733337402345	394.431335449219	1340.32666015625	184.878890991211	357.3424682617189	911.9806518554692	260.4426574707032	351.0676879882814	902.7526855468755	173.0093536376954	341.0763549804689	881.943725585938	187.9105682373047	343.025848388672	885.108764648438	238.3807678222657	573.5955810546877	609.9626464843752	43.96492767333986	373.2015380859376	1043.754760742188	208.5092010498048	
306	1.525	522.1281738281252	1247.580810546875	158.7971954345704	582.0557861328127	1060.416259765625	158.2944793701172	563.729431152344	869.4443359375005	307.443572998047	551.448181152344	862.3776855468755	80.89673614501956	364.069061279297	941.9319458007817	209.4060821533204	452.5420532226565	581.9776000976565	336.589813232422	451.3276062011721	505.6803894042971	314.4370727539064	489.1543579101565	553.8498535156252	315.8643493652345	409.1787414550784	283.4035949707032	295.0943908691407	253.8397521972657	32.93052291870119	232.7901611328126	406.6612854003909	18.27694511413575	291.3553161621095	443.0473632812502	30.78323554992677	234.972381591797	579.7998657226565	549.0513305664065	61.01514053344729	630.1580200195315	607.873962402344	41.98070907592775	638.479919433594	292.8366699218751	60.99822616577151	647.876403808594	214.9750823974611	72.93371582031253	682.9541625976565	250.2962799072267	67.93800354003909	657.9906005859377	34.78193664550783	133.5704498291016	837.7509765625005	68.40166473388675	97.16306304931646	798.368530273438	44.54252243041994	60.85859680175784	380.0633850097657	209.9175262451173	289.8071289062501	380.7619628906251	1246.93115234375	304.1821594238282	359.2037048339845	251.551727294922	309.5379333496095	400.9200134277346	1338.881469726563	184.2125396728516	363.5861206054689	910.530639648438	259.5808715820314	357.6342773437501	901.0634765625005	172.2918090820313	347.5882568359376	880.3832397460942	187.0557098388672	349.3342285156251	883.6933593750005	237.5187377929689	579.6245727539065	608.0718383789065	43.84349441528322	379.5120544433595	1042.26416015625	207.9699859619142	
307	1.53	528.6465454101565	1245.894897460938	158.1926269531251	588.5814208984377	1058.720581054688	158.0647430419922	570.0315551757815	868.0605468750005	307.3529357910157	558.3528442382815	860.8986206054692	80.62883758544925	370.7122497558595	940.4091796875005	208.4528198242189	456.7731018066409	581.221130371094	336.5648498535157	455.1062622070315	504.8773193359377	314.426483154297	493.2669677734377	552.812927246094	315.9859008789064	411.1873779296877	282.8665161132814	295.1188964843751	253.8329162597657	33.45256423950197	232.8282775878907	406.657897949219	18.28647994995118	291.3568115234376	443.086608886719	30.74514579772951	234.9742126464845	585.6204223632815	547.1485595703127	61.16032791137698	636.077087402344	605.631530761719	41.71189880371095	650.070251464844	290.987274169922	60.40207672119143	661.9429931640627	213.3830566406251	71.88448333740237	695.967468261719	249.868621826172	66.9129333496094	678.0151367187502	33.39747238159181	131.3966217041016	856.9774780273442	71.84873962402347	95.52770996093753	818.2871093750005	47.09622955322267	59.10686492919925	381.437225341797	209.5904388427736	289.8076171875001	387.3141784667971	1245.631591796875	303.7415771484376	360.9300231933595	251.4278564453126	309.5122680664064	407.435485839844	1337.411499023438	183.5250549316407	369.850799560547	909.0575561523442	258.7102661132814	364.2187805175782	899.3540649414067	171.5780944824219	354.113983154297	878.8117065429692	186.1907196044922	355.653045654297	882.2603149414067	236.6443328857423	585.5278320312502	606.0669555664065	43.67104721069337	385.8445434570315	1040.7568359375	207.4204254150392	
308	1.535	535.198913574219	1244.181640625	157.5767364501954	595.1408691406252	1056.996948242188	157.8373718261719	576.3605957031252	866.6701660156255	307.2655639648439	565.278503417969	859.4006958007817	80.36894226074222	377.3935546875001	938.8751831054692	207.503875732422	461.0505065917971	580.4671020507815	336.5494079589845	458.947448730469	504.0771789550784	314.4327697753907	497.4379577636721	551.7846679687502	316.1363220214845	413.2513427734377	282.3393554687501	295.1582946777345	253.8381958007814	34.05247879028322	232.8806304931642	406.658874511719	18.28690147399903	291.3645324707032	443.1253967285159	30.70636558532716	234.9813079833986	591.3569946289065	545.1734008789065	61.29510498046878	641.8529052734377	603.2628173828127	41.29102706909181	661.5134277343752	289.3052978515626	59.76899719238284	675.750183105469	212.0193786621095	70.78987884521487	708.722106933594	249.5721893310548	65.89397430419925	697.494323730469	32.36135864257814	129.2279663085938	875.6164550781255	75.46472167968753	93.97012329101565	837.615600585938	49.87878799438479	57.43235015869143	382.855194091797	209.2935638427736	289.8219604492189	393.8824768066409	1244.316162109375	303.272430419922	362.7036743164064	251.330291748047	309.4980773925782	413.9787597656252	1335.922973632813	182.8161773681641	376.1399536132814	907.567504882813	257.8336181640626	370.8230590820314	897.633178710938	170.8701934814454	360.6558227539064	877.237182617188	185.3170318603516	361.9847106933595	880.8151855468755	235.7589111328126	591.3247070312502	603.969665527344	43.44380569458009	392.2019653320315	1039.239501953125	206.8642730712892	
309	1.54	541.7857055664065	1242.448364257813	156.9482574462891	601.7344360351565	1055.25390625	157.6104888916016	582.7200927734377	865.277709960938	307.1826782226564	572.2257080078127	857.894409179688	80.1199645996094	384.1132507324221	937.3366699218755	206.5638122558595	465.3758544921877	579.721130371094	336.5424194335939	462.8476562500002	503.2871704101565	314.4549560546876	501.6660156250002	550.7710571289065	316.3116149902345	415.3684082031252	281.8276672363282	295.213592529297	253.8584442138673	34.73563766479494	232.9473419189454	406.6631774902346	18.2785930633545	291.3781738281251	443.1637268066409	30.66717529296876	234.9931945800782	597.0374755859377	543.151550292969	61.4158744812012	647.507019042969	600.7984008789065	40.70524978637697	672.8020629882815	287.7918395996095	59.09352874755862	689.277038574219	210.8719482421876	69.65364074707034	721.2044677734377	249.3923950195314	64.89009857177737	716.3645019531252	31.63510131835939	127.0822067260743	893.6274414062505	79.19763183593753	92.52357482910159	856.3081665039067	52.83843231201175	55.86305618286136	384.3157653808596	209.0329589843751	289.8525390625001	400.4686279296877	1242.991577148438	302.7747802734376	364.5215148925782	251.2655334472657	309.4966125488282	420.5506591796877	1334.422241210938	182.0857849121094	382.4571228027345	906.0668334960942	256.9537658691407	377.4490051269532	895.9096069335942	170.1699981689454	367.216522216797	875.6679077148442	184.4362182617188	368.3320922851564	879.3635864257817	234.863983154297	597.038513183594	601.8049926757815	43.15959548950197	398.5875244140627	1037.719116210938	206.3052673339845	
310	1.545	548.4071044921877	1240.702758789063	156.3059844970704	608.3623657226565	1053.499877929688	157.3821258544922	589.1136474609377	863.8872680664067	307.1050720214845	579.1953125000002	856.390258789063	79.884147644043	390.8717041015627	935.8005371093755	205.6370697021486	469.7507324218752	578.9880371093752	336.5422668457032	466.804138183594	502.5138854980471	314.4917297363282	505.9500732421877	549.7771606445315	316.5078430175782	417.5369873046877	281.3364562988282	295.2850341796876	253.8967590332032	35.50672912597658	233.0284271240236	406.6697692871096	18.26220893859864	291.3970947265626	443.2019042968752	30.62771797180177	235.0095367431642	602.692077636719	541.1103515625002	61.51786041259768	653.0669555664065	598.2741699218752	39.948787689209	683.9272460937502	286.4437561035157	58.37133789062503	702.5019531250002	209.9238128662111	68.48125457763675	733.4006958007815	249.3115997314454	63.91034317016604	734.5640869140627	31.17433357238771	124.9770889282227	910.971801757813	82.98818206787112	91.22430419921878	874.3219604492192	55.91627883911136	54.42773437500003	385.8180236816409	208.8138122558595	289.9013061523439	407.0742797851565	1241.664428710938	302.2488403320314	366.3815917968751	251.2394256591798	309.5086975097657	427.1518859863284	1332.915649414063	181.3338317871094	388.8059692382815	904.562133789063	256.0736083984376	384.0988464355471	894.1923828125005	169.4792175292969	373.799041748047	874.111938476563	183.5498962402344	374.6983337402345	877.911499023438	233.9611816406251	602.6963500976565	599.600769042969	42.81796646118165	405.0043945312502	1036.202270507813	205.747039794922	
